<svg width="30" height="30" viewBox="0 0 30 30" fill="none" xmlns="http://www.w3.org/2000/svg">
<path d="M15.7594 4.03126C15.5474 3.85095 15.2783 3.75193 15 3.75193C14.7217 3.75193 14.4526 3.85095 14.2406 4.03126L5.1 11.8013C4.97058 11.9114 4.86665 12.0483 4.79542 12.2026C4.7242 12.3569 4.68737 12.5248 4.6875 12.6947V24.8438C4.6875 24.9681 4.73689 25.0873 4.82479 25.1752C4.9127 25.2631 5.03193 25.3125 5.15625 25.3125H9.84375C9.96807 25.3125 10.0873 25.2631 10.1752 25.1752C10.2631 25.0873 10.3125 24.9681 10.3125 24.8438V18.2813C10.3125 17.6597 10.5594 17.0635 10.999 16.624C11.4385 16.1844 12.0346 15.9375 12.6562 15.9375H17.3475C17.6553 15.9375 17.9601 15.9981 18.2444 16.1159C18.5288 16.2337 18.7871 16.4063 19.0048 16.624C19.2224 16.8416 19.3951 17.1 19.5128 17.3843C19.6306 17.6687 19.6912 17.9735 19.6912 18.2813V24.8438C19.6912 24.9681 19.7406 25.0873 19.8285 25.1752C19.9165 25.2631 20.0357 25.3125 20.16 25.3125H24.8438C24.9681 25.3125 25.0873 25.2631 25.1752 25.1752C25.2631 25.0873 25.3125 24.9681 25.3125 24.8438V12.6938C25.3125 12.524 25.2756 12.3563 25.2044 12.2022C25.1332 12.0481 25.0293 11.9113 24.9 11.8013L15.7594 4.03126ZM13.0266 2.60345C13.5775 2.13513 14.2769 1.87799 15 1.87799C15.7231 1.87799 16.4225 2.13513 16.9734 2.60345L26.1141 10.3725C26.4505 10.6585 26.7208 11.0142 26.9061 11.4151C27.0915 11.8159 27.1875 12.2522 27.1875 12.6938V24.8438C27.1875 25.4654 26.9406 26.0615 26.501 26.501C26.0615 26.9406 25.4654 27.1875 24.8438 27.1875H20.16C19.5384 27.1875 18.9423 26.9406 18.5027 26.501C18.0632 26.0615 17.8162 25.4654 17.8162 24.8438V18.2813C17.8162 18.1569 17.7669 18.0377 17.679 17.9498C17.591 17.8619 17.4718 17.8125 17.3475 17.8125H12.6562C12.5319 17.8125 12.4127 17.8619 12.3248 17.9498C12.2369 18.0377 12.1875 18.1569 12.1875 18.2813V24.8438C12.1875 25.4654 11.9406 26.0615 11.501 26.501C11.0615 26.9406 10.4654 27.1875 9.84375 27.1875H5.15625C4.53465 27.1875 3.93851 26.9406 3.49897 26.501C3.05943 26.0615 2.8125 25.4654 2.8125 24.8438V12.6938C2.81252 12.2522 2.90854 11.8159 3.09388 11.4151C3.27923 11.0142 3.54949 10.6585 3.88594 10.3725L13.0266 2.60345Z" fill="#8F8E93"/>
</svg>
