<svg width="30" height="30" viewBox="0 0 30 30" fill="none" xmlns="http://www.w3.org/2000/svg">
<path d="M14.375 20.625H15.625V13.75H14.375V20.625ZM15 11.9712C15.2183 11.9712 15.4012 11.8975 15.5487 11.75C15.6962 11.6025 15.7696 11.4196 15.7687 11.2013C15.7679 10.9829 15.6942 10.8004 15.5475 10.6537C15.4008 10.5071 15.2183 10.4333 15 10.4325C14.7817 10.4317 14.5992 10.5054 14.4525 10.6537C14.3058 10.8021 14.2321 10.985 14.2313 11.2025C14.2304 11.42 14.3042 11.6025 14.4525 11.75C14.6008 11.8975 14.7833 11.9712 15 11.9712ZM15.0037 26.25C13.4479 26.25 11.9854 25.955 10.6163 25.365C9.24708 24.7742 8.05583 23.9725 7.0425 22.96C6.02917 21.9475 5.22708 20.7575 4.63625 19.39C4.04542 18.0225 3.75 16.5604 3.75 15.0037C3.75 13.4471 4.04542 11.9846 4.63625 10.6163C5.22625 9.24708 6.02667 8.05583 7.0375 7.0425C8.04833 6.02917 9.23875 5.22708 10.6088 4.63625C11.9788 4.04542 13.4412 3.75 14.9963 3.75C16.5512 3.75 18.0138 4.04542 19.3837 4.63625C20.7529 5.22625 21.9442 6.02708 22.9575 7.03875C23.9708 8.05042 24.7729 9.24083 25.3638 10.61C25.9546 11.9792 26.25 13.4412 26.25 14.9963C26.25 16.5512 25.955 18.0138 25.365 19.3837C24.775 20.7537 23.9733 21.945 22.96 22.9575C21.9467 23.97 20.7567 24.7721 19.39 25.3638C18.0233 25.9554 16.5613 26.2508 15.0037 26.25ZM15 25C17.7917 25 20.1562 24.0312 22.0938 22.0938C24.0312 20.1562 25 17.7917 25 15C25 12.2083 24.0312 9.84375 22.0938 7.90625C20.1562 5.96875 17.7917 5 15 5C12.2083 5 9.84375 5.96875 7.90625 7.90625C5.96875 9.84375 5 12.2083 5 15C5 17.7917 5.96875 20.1562 7.90625 22.0938C9.84375 24.0312 12.2083 25 15 25Z" fill="#8F8E93"/>
</svg>
